<?xml version="1.0" encoding="UTF-8"?>
<svg width="67px" height="67px" viewBox="0 0 67 67" version="1.1" xmlns="http://www.w3.org/2000/svg" xmlns:xlink="http://www.w3.org/1999/xlink">
    <title>Group 4</title>
    <g id="Page-1" stroke="none" stroke-width="1" fill="none" fill-rule="evenodd">
        <g id="Group-4">
            <circle id="Oval" fill="#E0E2ED" cx="33.5" cy="33.5" r="33.5"></circle>
            <g id="library_books-black-18dp" transform="translate(21.000000, 21.000000)" fill="#3E52BE" fill-rule="nonzero">
                <path d="M2.6,5.2 L0,5.2 L0,23.4 C0,24.83 1.17,26 2.6,26 L20.8,26 L20.8,23.4 L2.6,23.4 L2.6,5.2 Z M23.4,0 L7.8,0 C6.37,0 5.2,1.17 5.2,2.6 L5.2,18.2 C5.2,19.63 6.37,20.8 7.8,20.8 L23.4,20.8 C24.83,20.8 26,19.63 26,18.2 L26,2.6 C26,1.17 24.83,0 23.4,0 Z M22.1,11.7 L9.1,11.7 L9.1,9.1 L22.1,9.1 L22.1,11.7 Z M16.9,16.9 L9.1,16.9 L9.1,14.3 L16.9,14.3 L16.9,16.9 Z M22.1,6.5 L9.1,6.5 L9.1,3.9 L22.1,3.9 L22.1,6.5 Z" id="Shape"></path>
            </g>
        </g>
    </g>
</svg>